<?xml version="1.0" standalone="no"?>
<!DOCTYPE svg PUBLIC "-//W3C//DTD SVG 20010904//EN"
 "http://www.w3.org/TR/2001/REC-SVG-20010904/DTD/svg10.dtd">
<svg version="1.0" xmlns="http://www.w3.org/2000/svg"
 width="1755.000000pt" height="1755.000000pt" viewBox="0 0 1755.000000 1755.000000"
 preserveAspectRatio="xMidYMid meet">
<metadata>
Created by potrace 1.14, written by Peter Selinger 2001-2017
</metadata>
<g transform="translate(0.000000,1755.000000) scale(0.100000,-0.100000)"
fill="#000000" stroke="none">
<path d="M8285 17269 c-231 -136 -521 -307 -645 -380 -124 -72 -241 -142 -261
-155 -19 -13 -40 -24 -47 -24 -7 0 -12 -4 -12 -10 0 -5 -4 -10 -9 -10 -7 0
-101 -53 -161 -91 -8 -5 -112 -65 -230 -134 -118 -69 -222 -129 -230 -135 -8
-5 -49 -29 -90 -53 -76 -45 -430 -253 -640 -377 -147 -87 -655 -387 -695 -410
-16 -9 -46 -27 -66 -39 l-36 -21 1 -509 c1 -280 -2 -507 -5 -506 -3 2 -43 -18
-88 -45 -45 -28 -84 -50 -87 -50 -2 0 -28 -15 -57 -34 -44 -29 -651 -389 -832
-494 -33 -19 -72 -42 -87 -51 -35 -22 -138 -83 -163 -97 -11 -6 -182 -107
-380 -224 -198 -117 -452 -268 -565 -334 -113 -66 -206 -124 -208 -128 -2 -4
-8 -8 -13 -8 -6 0 -119 -65 -252 -144 -133 -78 -347 -205 -474 -281 -209 -123
-233 -140 -233 -164 -1 -14 -1 -930 -1 -2036 l-1 -2009 -21 -16 c-12 -8 -31
-20 -42 -26 -11 -6 -69 -40 -130 -76 -60 -36 -218 -129 -350 -206 l-240 -141
0 -2085 0 -2084 100 -59 c55 -32 105 -59 112 -61 7 -2 13 -7 13 -11 0 -4 12
-13 26 -20 14 -6 174 -99 355 -206 182 -107 332 -195 335 -195 3 0 17 -9 32
-19 22 -16 125 -77 349 -207 149 -88 209 -123 353 -209 91 -53 179 -105 195
-115 53 -31 478 -281 535 -315 30 -18 222 -131 425 -251 204 -119 420 -246
480 -282 294 -173 344 -202 354 -202 6 0 116 64 244 143 487 300 540 332 551
329 13 -4 321 -177 424 -239 40 -23 75 -43 78 -43 3 0 43 -23 90 -50 47 -28
86 -50 88 -50 3 0 39 -20 80 -45 42 -25 78 -45 80 -45 3 0 39 -20 81 -46 43
-25 100 -58 129 -73 63 -34 678 -381 726 -410 19 -11 44 -25 55 -30 11 -5 45
-23 75 -41 30 -18 78 -45 105 -60 28 -15 82 -46 122 -69 39 -22 89 -50 110
-62 21 -12 103 -58 183 -104 145 -82 194 -109 283 -159 104 -58 141 -78 357
-201 124 -70 243 -136 265 -147 l40 -20 140 82 c77 45 169 98 205 117 36 20
72 42 81 49 8 8 18 14 21 14 3 0 174 97 380 216 205 119 461 267 568 329 107
61 255 146 328 189 72 42 189 109 260 150 70 40 172 99 227 131 232 135 527
305 583 336 20 12 168 97 328 190 161 93 294 169 297 169 3 0 117 -66 253
-147 137 -80 263 -154 279 -163 17 -10 117 -69 224 -132 l194 -115 264 164
c146 89 269 163 274 163 5 0 9 5 9 10 0 6 4 10 10 10 5 0 36 17 67 37 32 21
67 43 78 49 26 14 359 219 405 249 37 24 443 273 472 290 25 14 267 163 308
190 19 13 154 96 300 185 146 89 281 172 300 185 19 12 265 163 545 335 281
172 521 321 534 330 l24 17 -2 919 c-1 505 -2 1412 -3 2014 0 968 -2 1097 -16
1113 -8 9 -21 17 -29 17 -7 0 -13 4 -13 9 0 5 -8 11 -17 15 -10 3 -25 10 -33
16 -15 10 -107 64 -145 84 -11 6 -154 89 -317 185 l-298 173 0 2053 0 2052
-177 105 c-363 215 -664 394 -691 410 -15 10 -34 21 -42 25 -8 3 -93 53 -188
110 -96 57 -178 103 -183 103 -5 0 -9 5 -9 10 0 6 -4 10 -9 10 -7 0 -542 314
-1134 666 -87 52 -162 94 -167 94 -6 0 -10 3 -10 8 0 4 -10 12 -23 18 -19 9
-428 248 -467 274 -8 5 -42 25 -75 45 -33 19 -67 40 -75 45 -8 5 -53 32 -100
60 l-85 51 -2 462 c0 254 -2 465 -2 469 -1 6 -141 92 -226 139 -16 9 -66 38
-110 64 -44 26 -99 58 -122 72 -24 13 -132 76 -240 139 -109 64 -214 125 -233
136 -19 11 -75 44 -125 73 -49 29 -106 62 -125 73 -19 11 -179 103 -354 206
-175 102 -323 186 -327 186 -5 0 -9 4 -9 9 0 5 -8 11 -17 14 -10 4 -36 17 -58
30 -54 32 -1411 825 -1455 849 -19 11 -87 51 -150 88 -63 37 -124 72 -135 77
-17 8 -89 -31 -440 -238z m648 -1054 c127 -74 237 -139 244 -145 7 -5 14 -10
16 -10 2 0 283 -163 623 -361 341 -199 639 -373 664 -387 44 -25 97 -55 135
-79 11 -7 73 -43 137 -80 65 -37 118 -70 118 -73 0 -5 -101 -67 -202 -125 -9
-5 -50 -30 -90 -54 -40 -24 -194 -116 -343 -204 -148 -88 -342 -203 -430 -255
-88 -52 -266 -158 -395 -235 -129 -77 -266 -159 -305 -182 -38 -23 -125 -75
-192 -114 l-123 -73 -597 343 c-329 188 -618 353 -643 367 -25 13 -49 28 -55
32 -5 4 -35 21 -65 37 -30 16 -194 110 -365 208 -393 226 -376 216 -400 229
-47 26 -47 27 -6 57 40 28 392 250 546 344 44 27 195 118 335 203 140 86 264
160 275 166 11 6 53 31 93 56 40 25 83 51 95 57 12 7 171 102 352 212 182 110
333 200 338 200 4 1 112 -60 240 -134z m-3769 -1951 c3 -8 2 -12 -4 -9 -6 3
-10 10 -10 16 0 14 7 11 14 -7z m1181 -111 c50 -27 121 -66 158 -87 37 -20 82
-45 100 -55 18 -10 68 -37 112 -61 44 -24 143 -78 220 -120 134 -74 736 -404
840 -460 28 -15 91 -50 140 -77 50 -27 122 -67 160 -88 130 -70 180 -98 203
-113 l22 -14 -1 -1294 c0 -712 -4 -1294 -8 -1294 -5 0 -14 7 -21 15 -7 8 -16
15 -21 15 -5 0 -104 57 -221 126 -117 70 -312 185 -433 257 -121 71 -244 145
-272 163 -29 19 -55 34 -57 34 -4 0 -107 61 -496 292 -47 28 -98 59 -115 68
-16 9 -113 67 -215 127 -102 60 -217 129 -257 152 -39 23 -73 48 -75 54 -3 10
-2 2438 1 2475 1 13 35 -4 236 -115z m5040 -1119 l0 -1247 -25 -15 c-14 -8
-41 -25 -60 -38 -19 -12 -54 -33 -77 -46 -23 -12 -258 -151 -522 -308 -265
-157 -496 -293 -514 -304 -17 -10 -151 -89 -297 -176 -146 -87 -281 -167 -300
-178 -19 -11 -115 -67 -213 -126 -98 -58 -180 -106 -182 -106 -1 0 -2 584 -1
1297 l1 1297 56 32 c32 17 90 49 130 71 41 22 99 54 129 70 30 17 224 123 430
236 206 112 400 218 430 235 30 16 91 50 135 74 44 25 114 63 155 85 41 22 93
51 115 63 22 12 74 41 115 63 41 22 131 71 199 109 68 38 133 74 145 79 11 5
48 25 81 44 33 19 62 35 65 35 3 0 5 -561 5 -1246z m-6221 510 c3 -8 2 -12 -4
-9 -6 3 -10 10 -10 16 0 14 7 11 14 -7z m0 -480 c3 -8 2 -12 -4 -9 -6 3 -10
10 -10 16 0 14 7 11 14 -7z m0 -964 l1 -840 25 -13 c23 -13 845 -495 1010
-594 41 -25 82 -49 90 -53 8 -5 40 -24 70 -42 30 -18 64 -37 75 -43 37 -21
590 -347 615 -364 14 -8 34 -21 45 -27 11 -5 175 -102 365 -214 190 -112 359
-211 375 -220 17 -10 143 -84 280 -165 687 -406 706 -417 731 -411 13 4 24 11
24 16 0 6 4 10 9 10 6 0 78 43 162 95 83 52 153 95 155 95 3 0 28 15 57 34 64
41 315 197 339 211 10 6 109 66 221 135 111 69 210 129 220 135 25 14 315 193
357 220 43 28 258 160 407 252 236 143 600 367 648 398 49 31 249 154 303 186
15 9 66 40 114 70 293 181 516 318 534 327 l21 11 -1 816 c0 465 3 815 8 815
5 0 25 -10 45 -22 44 -28 53 -34 138 -82 37 -22 70 -43 71 -48 2 -4 8 -8 13
-8 9 0 364 -208 411 -241 15 -10 29 -19 32 -19 3 0 60 -33 128 -74 128 -76
614 -365 873 -518 83 -48 157 -93 165 -98 14 -8 104 -62 169 -100 127 -75 208
-125 217 -136 6 -7 9 -57 8 -121 -1 -59 -5 -418 -8 -798 -11 -1218 -17 -1699
-19 -1700 -3 -3 -630 362 -644 375 -7 5 -14 10 -16 10 -4 0 -636 367 -913 530
l-80 47 -60 -35 c-32 -19 -72 -43 -89 -52 -16 -10 -154 -91 -305 -180 -151
-89 -295 -174 -320 -188 -25 -14 -57 -33 -72 -43 -14 -11 -29 -19 -32 -19 -4
0 -23 -11 -44 -24 -34 -22 -275 -165 -347 -206 -16 -9 -55 -32 -85 -50 -30
-18 -75 -44 -100 -58 -25 -13 -52 -31 -61 -38 -8 -8 -18 -14 -22 -14 -3 0
-124 -70 -268 -155 -144 -85 -263 -155 -264 -155 -2 0 -39 -22 -82 -49 -43
-26 -96 -58 -118 -70 -22 -12 -53 -30 -70 -41 -16 -11 -37 -23 -45 -27 -8 -4
-64 -36 -125 -72 -142 -84 -144 -85 -261 -154 -54 -32 -106 -62 -114 -67 -35
-22 -278 -165 -310 -183 -19 -10 -83 -48 -141 -83 -59 -35 -110 -64 -113 -64
-4 0 -12 -5 -19 -11 -7 -5 -27 -19 -44 -29 -26 -16 -33 -26 -34 -52 0 -38 0
-4107 0 -4125 1 -10 160 -111 266 -169 11 -6 174 -101 362 -212 188 -111 357
-210 375 -221 46 -26 340 -199 358 -211 36 -22 127 -76 153 -88 15 -8 27 -17
27 -21 0 -3 -42 -30 -93 -59 -50 -29 -139 -82 -197 -117 -58 -35 -112 -68
-120 -72 -8 -4 -37 -20 -65 -36 -27 -17 -63 -38 -80 -47 -51 -29 -509 -299
-525 -309 -19 -12 -476 -283 -550 -326 -30 -17 -158 -93 -284 -167 l-229 -136
-33 19 c-19 10 -51 29 -71 40 -21 12 -72 41 -113 64 -41 23 -93 52 -115 64
-22 13 -114 65 -205 116 -245 137 -247 138 -354 199 -54 31 -100 56 -102 56
-1 0 -29 15 -61 34 -63 36 -127 72 -213 119 -30 16 -60 33 -65 38 -6 4 -35 21
-65 37 -30 16 -104 58 -165 92 -129 73 -178 100 -242 136 -27 15 -100 56 -163
92 -63 36 -140 79 -170 95 -30 17 -67 38 -83 47 l-27 17 347 213 c192 118 389
239 438 270 50 31 246 152 437 269 l346 213 -2 2019 c-1 1272 -5 2022 -11
2028 -9 8 -227 138 -337 200 -37 21 -333 193 -466 272 -15 9 -70 41 -122 71
-52 30 -194 113 -315 183 -121 70 -233 136 -250 145 -16 10 -293 171 -614 359
-321 187 -585 341 -588 341 -2 0 -22 12 -46 27 -35 23 -202 120 -775 454 -46
27 -85 49 -87 49 -3 0 -23 13 -47 29 l-43 29 -35 -19 c-35 -19 -47 -26 -110
-65 -40 -25 -488 -288 -537 -315 -31 -17 -89 -52 -128 -76 -32 -19 -128 -76
-150 -88 -61 -34 -592 -349 -603 -358 -7 -5 -15 -7 -18 -4 -3 3 -7 198 -9 434
-3 235 -7 691 -10 1013 -3 322 -7 709 -8 860 l-2 275 95 57 c52 32 149 89 215
128 66 39 129 77 140 83 66 40 102 62 120 72 20 11 387 229 570 338 55 33 114
68 130 77 17 9 136 80 265 157 577 344 745 442 749 437 2 -2 5 -382 5 -844z
m-462 -3446 c117 -70 252 -151 300 -180 48 -30 90 -54 93 -54 3 0 36 -20 75
-45 39 -25 72 -45 74 -45 3 0 91 -52 196 -115 106 -63 194 -115 196 -115 1 0
46 -27 99 -60 53 -33 99 -60 102 -60 3 0 25 -13 50 -30 24 -16 46 -30 48 -30
3 0 94 -53 202 -118 109 -65 269 -160 356 -211 147 -88 156 -94 135 -106 -13
-6 -53 -30 -91 -53 -37 -23 -70 -42 -73 -42 -2 0 -17 -9 -32 -19 -24 -17 -499
-300 -547 -327 -11 -6 -111 -65 -222 -132 -111 -67 -206 -122 -209 -122 -4 0
-15 -6 -23 -14 -9 -7 -36 -25 -61 -38 -25 -14 -160 -94 -300 -178 -140 -84
-269 -161 -287 -171 -17 -10 -50 -29 -72 -43 -22 -15 -43 -26 -46 -26 -4 0
-27 -14 -52 -31 -51 -35 -44 -37 -158 29 -27 16 -66 38 -85 49 -19 11 -159 91
-310 178 -151 87 -297 170 -325 185 -27 15 -147 83 -266 152 -118 68 -222 127
-230 131 -8 4 -21 11 -29 17 -12 8 -225 130 -370 212 -237 135 -440 253 -440
257 0 13 81 68 370 248 168 104 319 198 335 207 17 9 89 53 160 97 72 44 175
107 230 140 55 33 163 98 240 145 77 47 158 96 180 109 35 20 284 169 325 195
14 9 104 62 174 103 17 11 35 23 41 28 5 5 14 9 21 9 7 0 108 -57 226 -126z
m8596 -32 c140 -84 258 -152 263 -152 5 0 9 -4 9 -8 0 -4 12 -13 28 -20 15 -6
39 -20 54 -29 31 -21 25 -18 493 -297 203 -122 377 -224 385 -229 8 -4 33 -18
55 -32 45 -28 148 -89 200 -120 19 -11 116 -69 216 -128 l181 -109 -143 -85
c-79 -47 -254 -151 -389 -231 -135 -80 -306 -181 -380 -225 -74 -44 -151 -90
-170 -102 -34 -22 -275 -165 -295 -175 -10 -5 -556 -330 -659 -392 -34 -21
-54 -27 -66 -21 -58 28 -2150 1229 -2150 1234 0 10 211 146 485 313 132 81
247 151 255 156 46 28 274 167 298 181 46 28 465 280 497 300 17 10 36 22 44
25 7 4 124 74 260 155 135 82 253 147 261 145 8 -1 129 -71 268 -154z m-11288
-1992 c47 -26 126 -69 175 -95 50 -26 95 -51 100 -55 10 -8 74 -43 180 -100
33 -18 83 -45 110 -60 48 -26 753 -411 865 -473 30 -16 60 -33 65 -37 6 -4 51
-29 100 -55 151 -81 225 -121 345 -187 l115 -64 2 -1297 3 -1297 -28 14 c-15
8 -157 92 -317 186 -159 95 -310 184 -335 198 -25 14 -72 42 -105 62 -84 52
-358 214 -370 219 -5 2 -37 21 -70 41 -33 21 -260 156 -505 300 -245 144 -449
267 -455 272 -9 8 -16 2472 -7 2491 4 8 6 6 132 -63z m5145 -1177 l0 -1248
-205 -123 c-113 -68 -212 -126 -220 -129 -8 -4 -26 -14 -40 -24 -24 -16 -757
-451 -830 -491 -19 -11 -39 -24 -45 -28 -5 -4 -30 -19 -55 -33 -25 -13 -153
-89 -285 -167 -337 -201 -505 -300 -509 -300 -1 0 -2 584 -2 1297 l0 1297 45
24 c25 13 75 40 111 60 36 19 175 96 310 170 135 74 328 179 430 235 102 55
199 109 215 118 17 10 46 26 65 36 19 9 66 35 104 56 61 35 265 146 446 245
199 108 427 233 440 241 8 6 17 10 20 10 3 1 5 -560 5 -1246z m3327 1210 c21
-13 40 -23 42 -23 3 0 27 -13 53 -28 26 -16 89 -50 138 -77 50 -26 178 -96
285 -155 372 -204 515 -283 590 -323 41 -22 109 -59 150 -82 41 -23 107 -59
145 -80 39 -21 108 -59 155 -85 47 -26 117 -64 155 -85 39 -21 90 -49 115 -63
123 -68 209 -115 248 -134 41 -21 42 -23 43 -72 2 -227 0 -2538 -3 -2541 -2
-2 -75 38 -163 90 -87 52 -160 95 -162 95 -2 0 -39 23 -83 50 -44 28 -82 50
-84 50 -2 0 -41 23 -85 50 -44 28 -83 50 -86 50 -3 0 -29 15 -58 34 -28 18
-153 93 -277 166 -124 73 -346 205 -495 293 -148 89 -283 168 -298 176 -16 9
-36 21 -45 26 -10 6 -92 55 -185 110 l-167 99 0 1248 c0 1184 1 1247 18 1241
9 -4 34 -17 54 -30z m5208 -1213 c0 -1182 -1 -1251 -17 -1257 -10 -4 -34 -17
-53 -29 -19 -12 -53 -33 -76 -46 -57 -32 -438 -259 -472 -280 -15 -10 -34 -21
-42 -25 -9 -5 -118 -69 -243 -143 -125 -74 -242 -143 -260 -154 -56 -32 -417
-246 -547 -324 -69 -41 -143 -85 -165 -97 -22 -13 -101 -59 -175 -103 -74 -44
-137 -77 -140 -72 -3 4 -5 587 -4 1295 l1 1287 254 139 c140 77 286 157 324
178 39 21 142 78 230 126 87 48 189 103 225 122 36 20 79 43 95 53 17 9 62 34
100 55 39 21 111 60 160 88 50 27 133 73 185 100 52 28 97 54 98 59 2 4 8 8
14 8 5 0 109 55 231 122 239 131 271 148 275 148 1 0 2 -563 2 -1250z"/>
</g>
</svg>
